<svg xmlns="http://www.w3.org/2000/svg"><symbol id="icon-email" viewBox="0 0 14 14"><g fill="#030104"><path d="M7 9L5.268 7.484.316 11.73c.18.166.423.27.69.27h11.987c.267 0 .51-.104.688-.27L8.733 7.483 7 9z"/><path d="M13.684 2.27c-.18-.167-.422-.27-.69-.27H1.006c-.267 0-.51.104-.69.273L7 8l6.684-5.73zM0 2.878v8.308L4.833 7.08M9.167 7.08L14 11.185v-8.31"/></g></symbol><symbol id="icon-github" viewBox="0 0 512 512"><path d="M256 0C114.615 0 0 114.615 0 256s114.615 256 256 256 256-114.615 256-256S397.385 0 256 0zm152.027 408.027c-19.76 19.76-42.756 35.267-68.354 46.094-6.502 2.75-13.105 5.165-19.8 7.247V423c0-20.167-6.917-35-20.75-44.5 8.667-.833 16.624-2 23.874-3.5s14.918-3.667 23-6.5c8.084-2.833 15.334-6.208 21.75-10.125 6.418-3.917 12.584-9 18.5-15.25 5.918-6.25 10.875-13.333 14.875-21.25s7.168-17.417 9.5-28.5c2.334-11.083 3.5-23.292 3.5-36.625 0-25.833-8.416-47.833-25.25-66 7.668-20 6.834-41.75-2.5-65.25l-6.25-.75c-4.332-.5-12.125 1.333-23.375 5.5s-23.875 11-37.875 20.5c-19.832-5.5-40.416-8.25-61.75-8.25-21.5 0-42 2.75-61.5 8.25-8.832-6-17.207-10.958-25.124-14.875s-14.25-6.583-19-8-9.167-2.292-13.25-2.625-6.708-.417-7.875-.25-2 .333-2.5.5c-9.333 23.667-10.167 45.417-2.5 65.25-16.833 18.167-25.25 40.167-25.25 66 0 13.333 1.167 25.542 3.5 36.625s5.5 20.583 9.5 28.5 8.958 15 14.875 21.25 12.083 11.333 18.5 15.25 13.667 7.292 21.75 10.125 15.75 5 23 6.5 15.208 2.667 23.875 3.5c-13.667 9.333-20.5 24.167-20.5 44.5v39.115c-7.55-2.247-14.99-4.902-22.3-7.994-25.597-10.826-48.594-26.334-68.353-46.093-19.758-19.758-35.267-42.756-46.093-68.354C46.68 313.195 41 285.043 41 256s5.68-57.195 16.88-83.675c10.826-25.597 26.334-48.594 46.092-68.353 19.758-19.76 42.756-35.267 68.353-46.093C198.805 46.68 226.957 41 256 41s57.195 5.68 83.676 16.88c25.598 10.826 48.594 26.334 68.354 46.092 19.758 19.758 35.266 42.756 46.092 68.353C465.32 198.805 471 226.957 471 256s-5.68 57.195-16.88 83.675c-10.825 25.596-26.335 48.595-46.093 68.352z"/></symbol><symbol id="icon-instagram" viewBox="0 0 97.395 97.395"><path d="M12.5 0h72.394c6.875 0 12.5 5.09 12.5 12.5v72.395c0 7.41-5.625 12.5-12.5 12.5H12.5c-6.876 0-12.5-5.09-12.5-12.5V12.5C0 5.09 5.624 0 12.5 0zM70.95 10.82c-2.412 0-4.383 1.973-4.383 4.386V25.7c0 2.413 1.97 4.386 4.383 4.386h11.008c2.412 0 4.385-1.973 4.385-4.385V15.207c0-2.413-1.972-4.385-4.384-4.385H70.948zm15.44 30.368h-8.573c.81 2.648 1.25 5.453 1.25 8.355 0 16.2-13.556 29.332-30.275 29.332-16.718 0-30.272-13.132-30.272-29.332 0-2.904.438-5.708 1.25-8.355h-8.945v41.14c0 2.13 1.742 3.873 3.872 3.873h67.822c2.13 0 3.872-1.74 3.872-3.87V41.187h-.003zm-37.6-11.655c-10.8 0-19.56 8.485-19.56 18.953S37.99 67.44 48.79 67.44c10.804 0 19.563-8.486 19.563-18.954s-8.757-18.953-19.56-18.953z"/></symbol><symbol id="icon-link" viewBox="0 0 457.03 457.03"><path d="M421.512 207.074l-85.795 85.767c-47.352 47.38-124.17 47.38-171.53 0-7.46-7.438-13.295-15.82-18.42-24.464l39.864-39.86c1.896-1.912 4.236-3.007 6.472-4.297 2.756 9.415 7.567 18.33 14.972 25.735 23.648 23.667 62.128 23.634 85.762 0l85.768-85.765c23.666-23.664 23.666-62.135 0-85.78-23.635-23.647-62.105-23.647-85.768 0l-30.5 30.53c-24.75-9.636-51.414-12.227-77.372-8.423l64.99-64.99c47.38-47.37 124.178-47.37 171.558 0 47.357 47.37 47.357 124.18 0 171.547zm-226.804 141.03l-30.52 30.532c-23.647 23.634-62.13 23.634-85.78 0-23.647-23.667-23.647-62.138 0-85.795l85.78-85.766c23.664-23.662 62.12-23.662 85.766 0 7.388 7.39 12.204 16.302 14.986 25.706 2.25-1.307 4.56-2.37 6.454-4.266l39.86-39.845c-5.09-8.68-10.957-17.03-18.42-24.478-47.348-47.37-124.172-47.37-171.543 0L35.527 249.96c-47.366 47.385-47.366 124.172 0 171.553 47.37 47.356 124.177 47.356 171.547 0l65.008-65.003c-25.97 3.826-52.643 1.213-77.372-8.406z"/></symbol><symbol id="icon-twitter" viewBox="0 0 612 612"><path d="M612 116.258c-22.525 9.98-46.694 16.75-72.088 19.772 25.93-15.527 45.777-40.155 55.184-69.41-24.322 14.378-51.17 24.82-79.775 30.48-22.906-24.438-55.49-39.66-91.63-39.66-69.333 0-125.55 56.218-125.55 125.514 0 9.828 1.11 19.427 3.25 28.606-104.325-5.24-196.834-55.223-258.75-131.174-10.822 18.51-16.98 40.078-16.98 63.1 0 43.56 22.182 81.994 55.836 104.48-20.575-.688-39.926-6.348-56.867-15.756v1.568c0 60.806 43.29 111.554 100.692 123.104-10.517 2.83-21.607 4.398-33.08 4.398-8.107 0-15.947-.803-23.634-2.333 15.985 49.907 62.336 86.2 117.253 87.194-42.946 33.655-97.098 53.656-155.915 53.656-10.134 0-20.116-.612-29.944-1.72 55.568 35.68 121.537 56.484 192.44 56.484 230.947 0 357.187-191.29 357.187-357.188l-.42-16.253C573.87 163.525 595.21 141.42 612 116.257z" fill="#010002"/></symbol></svg>